<svg width="139" height="59" viewBox="0 0 139 59" fill="none" xmlns="http://www.w3.org/2000/svg">
<g id="Group 6">
<path id="Vector 1" d="M71.9997 32.3157C78.1627 24.0117 96.3011 7.63839 119.55 16.6811C119.55 16.6811 100.669 30.4174 101.769 47.4772" stroke="black" stroke-width="5.12821"/>
<path id="Vector 6" d="M38.0029 33.4646C37.0075 30.3362 32.3109 23.9814 21.4884 23.5894" stroke="black" stroke-width="5"/>
<path id="Vector 5" d="M31 48.4521C24.6666 41.9521 14.5481 24.9521 25.7213 13.4521C25.7213 13.4521 37 11 102 46.5" stroke="black" stroke-width="5"/>
<g id="Group 5">
<path id="Vector 2" d="M0 47.4521C7.69231 47.4521 9.4871 56.4265 16.6666 56.4265C25.641 56.4265 26.923 47.4521 35.8974 47.4521C44.8717 47.4521 43.5897 56.4265 52.564 56.4265C61.5384 56.4265 61.5384 47.4521 69.2307 47.4521" stroke="black" stroke-width="5.12821"/>
<path id="Vector 3" d="M138.23 47.4521C130.538 47.4521 128.743 56.4265 121.564 56.4265C112.59 56.4265 111.307 47.4521 102.333 47.4521C93.3587 47.4521 94.6408 56.4265 85.6664 56.4265C76.6921 56.4265 76.6921 47.4521 68.9998 47.4521" stroke="black" stroke-width="5.12821"/>
</g>
<circle id="Ellipse 1" cx="45.5" cy="26.9521" r="2.5" fill="black"/>
</g>
</svg>
