<svg width="78" height="19" viewBox="0 0 78 19" fill="none" xmlns="http://www.w3.org/2000/svg">
<path d="M34.8607 15V6.27273H40.4516V7.59801H36.4417V9.96733H40.0681V11.2926H36.4417V15H34.8607ZM41.8238 15V8.45455H43.3664V15H41.8238ZM42.5994 7.52557C42.3551 7.52557 42.1448 7.4446 41.9687 7.28267C41.7926 7.1179 41.7045 6.92045 41.7045 6.69034C41.7045 6.45739 41.7926 6.25994 41.9687 6.09801C42.1448 5.93324 42.3551 5.85085 42.5994 5.85085C42.8465 5.85085 43.0568 5.93324 43.2301 6.09801C43.4062 6.25994 43.4943 6.45739 43.4943 6.69034C43.4943 6.92045 43.4062 7.1179 43.2301 7.28267C43.0568 7.4446 42.8465 7.52557 42.5994 7.52557ZM46.4953 11.1648V15H44.9527V8.45455H46.4271V9.56676H46.5038C46.6544 9.20028 46.8945 8.90909 47.224 8.69318C47.5564 8.47727 47.9669 8.36932 48.4555 8.36932C48.9073 8.36932 49.3007 8.46591 49.6359 8.65909C49.974 8.85227 50.2354 9.1321 50.42 9.49858C50.6075 9.86506 50.6999 10.3097 50.697 10.8324V15H49.1544V11.071C49.1544 10.6335 49.0408 10.2912 48.8135 10.044C48.5891 9.79687 48.278 9.6733 47.8803 9.6733C47.6104 9.6733 47.3703 9.73295 47.1601 9.85227C46.9527 9.96875 46.7894 10.1378 46.67 10.3594C46.5536 10.581 46.4953 10.8494 46.4953 11.1648ZM55.5848 12.0682H57.0166L57.8646 13.1676L58.4698 13.8835L59.9229 15.75H58.3888L57.4002 14.4972L56.9783 13.9006L55.5848 12.0682ZM60.1317 10.6364C60.1317 11.5767 59.9555 12.3821 59.6033 13.0526C59.2538 13.7202 58.7766 14.2315 58.1715 14.5866C57.5692 14.9418 56.8859 15.1193 56.1217 15.1193C55.3575 15.1193 54.6729 14.9418 54.0678 14.5866C53.4655 14.2287 52.9882 13.7159 52.6359 13.0483C52.2865 12.3778 52.1118 11.5739 52.1118 10.6364C52.1118 9.69602 52.2865 8.89205 52.6359 8.22443C52.9882 7.55398 53.4655 7.04119 54.0678 6.68608C54.6729 6.33097 55.3575 6.15341 56.1217 6.15341C56.8859 6.15341 57.5692 6.33097 58.1715 6.68608C58.7766 7.04119 59.2538 7.55398 59.6033 8.22443C59.9555 8.89205 60.1317 9.69602 60.1317 10.6364ZM58.5422 10.6364C58.5422 9.97443 58.4385 9.41619 58.2311 8.96165C58.0266 8.50426 57.7425 8.15909 57.3788 7.92614C57.0152 7.69034 56.5962 7.57244 56.1217 7.57244C55.6473 7.57244 55.2283 7.69034 54.8646 7.92614C54.501 8.15909 54.2155 8.50426 54.0081 8.96165C53.8036 9.41619 53.7013 9.97443 53.7013 10.6364C53.7013 11.2983 53.8036 11.858 54.0081 12.3153C54.2155 12.7699 54.501 13.1151 54.8646 13.3509C55.2283 13.5838 55.6473 13.7003 56.1217 13.7003C56.5962 13.7003 57.0152 13.5838 57.3788 13.3509C57.7425 13.1151 58.0266 12.7699 58.2311 12.3153C58.4385 11.858 58.5422 11.2983 58.5422 10.6364ZM65.7418 12.2472V8.45455H67.2844V15H65.7886V13.8366H65.7205C65.5727 14.2031 65.3298 14.5028 64.9918 14.7358C64.6565 14.9687 64.2432 15.0852 63.7517 15.0852C63.3227 15.0852 62.9435 14.9901 62.6139 14.7997C62.2872 14.6065 62.0315 14.3267 61.8469 13.9602C61.6622 13.5909 61.5699 13.1449 61.5699 12.6222V8.45455H63.1125V12.3835C63.1125 12.7983 63.2261 13.1278 63.4534 13.3722C63.6807 13.6165 63.979 13.7386 64.3483 13.7386C64.5756 13.7386 64.7957 13.6832 65.0088 13.5724C65.2219 13.4616 65.3966 13.2969 65.533 13.0781C65.6722 12.8565 65.7418 12.5795 65.7418 12.2472ZM68.8707 15V8.45455H70.4133V15H68.8707ZM69.6462 7.52557C69.4019 7.52557 69.1917 7.4446 69.0156 7.28267C68.8394 7.1179 68.7514 6.92045 68.7514 6.69034C68.7514 6.45739 68.8394 6.25994 69.0156 6.09801C69.1917 5.93324 69.4019 5.85085 69.6462 5.85085C69.8934 5.85085 70.1036 5.93324 70.2769 6.09801C70.4531 6.25994 70.5411 6.45739 70.5411 6.69034C70.5411 6.92045 70.4531 7.1179 70.2769 7.28267C70.1036 7.4446 69.8934 7.52557 69.6462 7.52557ZM71.9144 15V14.0199L75.2894 9.78835V9.73295H72.0252V8.45455H77.1771V9.5071L73.9641 13.6662V13.7216H77.2879V15H71.9144Z" fill="black"/>
<path d="M6.5 17C7 12.6667 10.6 3.6 21 2C21 2 17 11 21 17" stroke="black" stroke-width="2"/>
<path d="M0 14C3 14 3.69997 17.5 6.49997 17.5C9.99997 17.5 10.5 14 14 14C17.5 14 17 17.5 20.5 17.5C24 17.5 24 14 27 14" stroke="black" stroke-width="2"/>
</svg>
