<svg width="139" height="60" viewBox="0 0 139 60" fill="none" xmlns="http://www.w3.org/2000/svg">
<g id="Group 7">
<g id="Group 6">
<path id="Vector 6" d="M21 25.4521C22.3333 28.4521 27.7 34.2521 38.5 33.4521" stroke="black" stroke-width="5"/>
<path id="Vector 5" d="M31.0075 49C24.846 42.5001 15.002 25.5003 25.872 14.0004C25.872 14.0004 39.7634 13.5005 103 49.0001" stroke="black" stroke-width="5"/>
<g id="Group 5">
<path id="Vector 2" d="M0 48.4521C7.69231 48.4521 9.4871 57.4265 16.6666 57.4265C25.641 57.4265 26.923 48.4521 35.8974 48.4521C44.8717 48.4521 43.5897 57.4265 52.564 57.4265C61.5384 57.4265 61.5384 48.4521 69.2307 48.4521" stroke="black" stroke-width="5.12821"/>
<path id="Vector 3" d="M138.23 48.4521C130.538 48.4521 128.743 57.4265 121.564 57.4265C112.59 57.4265 111.307 48.4521 102.333 48.4521C93.3587 48.4521 94.6408 57.4265 85.6664 57.4265C76.6921 57.4265 76.6921 48.4521 68.9998 48.4521" stroke="black" stroke-width="5.12821"/>
</g>
<circle id="Ellipse 1" cx="45.5" cy="27.9521" r="2.5" fill="black"/>
</g>
<path id="Vector 1" d="M73.9997 32.3157C80.1627 24.0117 98.3011 7.63839 121.55 16.6811C121.55 16.6811 102.669 30.4174 103.769 47.4772" stroke="black" stroke-width="5.12821"/>
</g>
</svg>
